<svg width="200" height="200" viewBox="0 0 200 200" xmlns="http://www.w3.org/2000/svg" fill="black">
  <g transform="translate(20,20)">
    <!-- Pot base -->
    <ellipse cx="80" cy="130" rx="60" ry="25" />
    <rect x="20" y="80" width="120" height="60" rx="20" />
    <ellipse cx="80" cy="80" rx="60" ry="20" fill="white" stroke="black" stroke-width="2"/>
    <!-- Pot handles -->
    <rect x="5" y="90" width="10" height="30" rx="5" />
    <rect x="145" y="90" width="10" height="30" rx="5" />

    <!-- Mermaid tail -->
    <path d="M80,80
             C70,60 55,50 40,60
             C60,30 90,30 80,70
             C90,30 120,30 140,60
             C125,50 110,60 100,80
             Z"
          fill="black" />
    
    <!-- Scales -->
    <g transform="translate(60,70) scale(0.8)">
      <path d="M10,10 a10,10 0 0,1 20,0" stroke="white" fill="none"/>
      <path d="M10,20 a10,10 0 0,1 20,0" stroke="white" fill="none"/>
      <path d="M10,30 a10,10 0 0,1 20,0" stroke="white" fill="none"/>
    </g>
  </g>
</svg> 